<svg width="26" height="27" viewBox="0 0 26 27" fill="none" xmlns="http://www.w3.org/2000/svg">
<path d="M18.1127 2H6.64789C4.47887 2 2 3.57534 2 6.09589V7.9863V20.9041C2 20.9041 2.92958 25 7.26761 25H19.662C22.7606 25 24 23.1096 24 19.9589V6.72603C24 3.26027 21.831 2 18.1127 2Z" stroke="white" stroke-opacity="0.2" stroke-width="2.5"/>
<path d="M17.9927 13.4999C17.9927 16.4673 15.7054 18.777 12.9995 18.777C10.2936 18.777 8.00624 16.4673 8.00624 13.4999C8.00624 10.5326 10.2936 8.2229 12.9995 8.2229C15.7054 8.2229 17.9927 10.5326 17.9927 13.4999Z" stroke="white" stroke-opacity="0.2" stroke-width="2.5"/>
<ellipse rx="1.48649" ry="1.55405" transform="matrix(1 0 0 -1 19.5406 6.66225)" fill="white" fill-opacity="0.2"/>
</svg>
