<svg width="20" height="13" viewBox="0 0 20 13" fill="none" xmlns="http://www.w3.org/2000/svg">
<path opacity="0.9" d="M4.28021 1.53785H1.5498C1.08314 1.52678 0.917485 1.60119 1.03785 2.08518C1.98923 4.18829 2.4405 5.31956 3.93891 7.74095C6.26625 11.1096 7.73692 12.1509 10.7649 11.9372C11.1772 11.9248 11.3017 11.8226 11.4475 11.5723C11.7538 9.62035 11.952 8.83673 12.4714 9.38295C13.0544 10.1438 13.4875 10.666 13.8366 11.0314C14.425 11.6473 14.7748 11.8183 15.2018 11.9372C16.3082 12.0049 16.9313 12.0356 18.1029 11.9372C18.8908 11.8248 19.1044 11.6037 18.9561 10.8425C18.0205 9.6567 17.3729 8.97559 16.0551 7.74095C15.8785 7.54251 15.8126 7.41484 16.0551 7.01118C16.9958 5.27887 17.5785 4.28644 18.7855 2.45007C19.0415 2.03354 19.0686 1.84775 18.6148 1.72029C17.2869 1.42784 16.502 1.34954 14.8605 1.72029C14.1234 3.58834 13.5695 4.52227 12.4714 6.09895C12.1379 6.42541 11.9509 6.57605 11.6182 5.91651C11.4658 4.27738 11.4266 3.36181 11.4475 1.72029C10.7296 0.344937 6.14925 1.28371 7.01061 1.72029C7.87197 2.15687 8.03451 2.5811 8.20516 2.9974C8.50861 4.2231 8.42159 4.71092 8.20516 5.55162L8.03451 5.91651L7.86386 6.09895L7.69321 6.2814H7.52256L7.18126 6.09895L6.15736 4.82184L4.79216 1.90274C4.70026 1.68374 4.63206 1.57277 4.28021 1.53785Z" fill="white" fill-opacity="0.2" stroke="white" stroke-opacity="0.05" stroke-width="0.75"/>
</svg>
