<svg width="26" height="27" fill="none" xmlns="http://www.w3.org/2000/svg"><path d="M18.113 2H6.648C4.478 2 2 3.575 2 6.096v14.808S2.93 25 7.268 25h12.394C22.761 25 24 23.11 24 19.959V6.726C24 3.26 21.831 2 18.113 2z" stroke="#fff" stroke-opacity=".2" stroke-width="2.5"/><path d="M17.993 13.5c0 2.967-2.288 5.277-4.993 5.277-2.706 0-4.994-2.31-4.994-5.277S10.294 8.223 13 8.223s4.994 2.31 4.994 5.277z" stroke="#fff" stroke-opacity=".2" stroke-width="2.5"/><ellipse rx="1.486" ry="1.554" transform="matrix(1 0 0 -1 19.54 6.662)" fill="#fff" fill-opacity=".2"/></svg>