<svg width="20" height="13" fill="none" xmlns="http://www.w3.org/2000/svg"><path opacity=".9" d="M4.28 1.538H1.55c-.467-.011-.633.063-.512.547.951 2.103 1.403 3.235 2.9 5.656 2.328 3.369 3.799 4.41 6.827 4.196.412-.012.537-.114.682-.365.307-1.952.505-2.735 1.024-2.189.583.76 1.017 1.283 1.366 1.648.588.616.938.787 1.365.906 1.106.068 1.73.099 2.9 0 .789-.112 1.002-.333.854-1.095-.936-1.185-1.583-1.866-2.9-3.101-.178-.198-.243-.326 0-.73a53.792 53.792 0 012.73-4.56c.255-.417.283-.603-.171-.73-1.328-.293-2.113-.371-3.754 0-.738 1.867-1.292 2.801-2.39 4.378-.333.326-.52.477-.853-.182a33.966 33.966 0 01-.17-4.197c-.718-1.375-5.299-.436-4.437 0 .861.437 1.024.861 1.194 1.277.304 1.226.217 1.714 0 2.555l-.17.365-.171.182-.17.182h-.171L7.18 6.1 6.157 4.822l-1.365-2.92c-.092-.218-.16-.33-.512-.364z" fill="#fff" fill-opacity=".2" stroke="#fff" stroke-opacity=".05" stroke-width=".75"/></svg>